<?xml version="1.0" standalone="no"?>
<!DOCTYPE svg PUBLIC "-//W3C//DTD SVG 20010904//EN"
 "http://www.w3.org/TR/2001/REC-SVG-20010904/DTD/svg10.dtd">
<svg version="1.0" xmlns="http://www.w3.org/2000/svg"
 width="32.000000pt" height="32.000000pt" viewBox="0 0 32.000000 32.000000"
 preserveAspectRatio="xMidYMid meet">

<g transform="translate(0.000000,32.000000) scale(0.100000,-0.100000)"
fill="#000000" stroke="none">
<path d="M53 310 c-37 -15 -53 -61 -53 -150 0 -92 16 -135 56 -150 33 -13 175
-13 208 0 40 15 56 58 56 150 0 92 -16 135 -56 150 -31 12 -181 12 -211 0z
m33 -107 c13 -65 21 -70 29 -20 6 38 11 47 27 47 12 0 18 -5 15 -12 -2 -7 -12
-39 -21 -70 -23 -82 -46 -79 -69 6 -21 78 -21 76 -2 76 8 0 17 -12 21 -27z
m116 0 l4 -28 14 28 c7 15 21 27 33 27 19 0 19 -1 -1 -32 -20 -32 -20 -32 -1
-70 19 -38 19 -38 -1 -38 -13 0 -22 9 -26 25 -7 28 -24 24 -24 -6 0 -10 -7
-19 -15 -19 -12 0 -15 14 -15 70 0 54 3 70 14 70 8 0 16 -12 18 -27z"/>
</g>
</svg>
